<?xml version="1.0" encoding="UTF-8"?>
<svg width="1440px" height="1024px" viewBox="0 0 1440 1024" version="1.1" xmlns="http://www.w3.org/2000/svg" xmlns:xlink="http://www.w3.org/1999/xlink">
    <!-- Generator: Sketch 53 (72520) - https://sketchapp.com -->
    <title>soil</title>
    <desc>Created with Sketch.</desc>
    <g id="soil" stroke="none" stroke-width="1" fill="none" fill-rule="evenodd">
        <!-- <polygon id="Rectangle" fill="#8C613D" points="90 643 720 428 1350 643 720 936"></polygon> -->
        <path d="M720,936 L1350,643 L1350,700.901087 L720,993 L90,700.996638 L90,643 L720,936 Z" id="Combined-Shape" fill="#6C543F"></path>
        <path d="M249.999141,668.999509 C252.998497,665.666183 255.831223,663.999519 258.497317,663.999519 C261.163411,663.999519 263.996136,665.666183 266.995492,668.999509 L249.999141,668.999509 Z M277.993131,678.999488 C280.110323,675.666161 282.109894,673.999498 283.991843,673.999498 C285.873792,673.999498 287.873363,675.666161 289.990555,678.999488 L277.993131,678.999488 Z M259.996995,677.99949 C261.408456,675.332829 262.741504,673.999498 263.996136,673.999498 C265.250769,673.999498 266.583816,675.332829 267.995278,677.99949 C266.217881,678.666155 264.884834,678.999488 263.996136,678.999488 C263.107438,678.999488 261.774391,678.666155 259.996995,677.99949 Z M246,684.799475 C247.764327,681.599482 249.430636,679.999486 250.998927,679.999486 C252.567217,679.999486 254.233526,681.599482 255.997853,684.799475 C253.776108,685.599474 252.109799,685.999473 250.998927,685.999473 C249.888054,685.999473 248.221745,685.599474 246,684.799475 Z M271.994419,680.749484 C271.994419,680.124485 272.05323,679.999486 272.994204,679.999486 C273.935179,679.999486 273.99399,680.498718 273.99399,680.999483 C273.99399,681.500249 273.660728,681.999481 272.994204,681.999481 C272.327681,681.999481 271.994419,681.374483 271.994419,680.749484 Z M264.995922,687.749469 C264.995922,687.12447 265.054732,686.999471 265.995707,686.999471 C266.936681,686.999471 266.995492,687.498703 266.995492,687.999469 C266.995492,688.500234 266.66223,688.999467 265.995707,688.999467 C265.329183,688.999467 264.995922,688.374468 264.995922,687.749469 Z M273.99399,667.999511 C274.738928,665.33285 275.738713,663.999519 276.993346,663.999519 C278.247978,663.999519 279.247764,665.33285 279.992702,667.999511 C278.881829,668.666176 277.882044,668.999509 276.993346,668.999509 C276.104648,668.999509 275.104862,668.666176 273.99399,667.999511 Z M701.902117,462.999945 C703.842876,460.999949 705.675816,459.999951 707.400936,459.999951 C709.126056,459.999951 710.958996,460.999949 712.899755,462.999945 L701.902117,462.999945 Z M719.898253,470.999928 C721.133282,468.999932 722.299698,467.999934 723.397502,467.999934 C724.495305,467.999934 725.661721,468.999932 726.89675,470.999928 L719.898253,470.999928 Z M707.900829,470.399929 C708.782992,468.799933 709.616147,467.999934 710.400292,467.999934 C711.184437,467.999934 712.017592,468.799933 712.899755,470.399929 C711.788883,470.799928 710.955728,470.999928 710.400292,470.999928 C709.844856,470.999928 709.011701,470.799928 707.900829,470.399929 Z M698.902761,475.199919 C699.961357,473.06659 700.961142,471.999926 701.902117,471.999926 C702.843091,471.999926 703.842876,473.06659 704.901473,475.199919 C703.568426,475.733251 702.56864,475.999917 701.902117,475.999917 C701.235593,475.999917 700.235808,475.733251 698.902761,475.199919 Z M715.899111,472.374925 C715.899111,472.062426 715.928517,471.999926 716.399004,471.999926 C716.869491,471.999926 716.898897,472.249542 716.898897,472.499925 C716.898897,472.750308 716.732266,472.999924 716.399004,472.999924 C716.065742,472.999924 715.899111,472.687424 715.899111,472.374925 Z M711.89997,477.374915 C711.89997,477.062415 711.929376,476.999915 712.399863,476.999915 C712.87035,476.999915 712.899755,477.249531 712.899755,477.499914 C712.899755,477.750297 712.733125,477.999913 712.399863,477.999913 C712.066601,477.999913 711.89997,477.687414 711.89997,477.374915 Z M716.898897,462.399946 C717.395522,460.79995 718.062046,459.999951 718.898467,459.999951 C719.734889,459.999951 720.401413,460.79995 720.898038,462.399946 C720.157456,462.799945 719.490933,462.999945 718.898467,462.999945 C718.306002,462.999945 717.639479,462.799945 716.898897,462.399946 Z M724.89718,444.999983 C725.779343,443.666653 726.612498,442.999987 727.396643,442.999987 C728.180788,442.999987 729.013943,443.666653 729.896106,444.999983 L724.89718,444.999983 Z M715.899111,444.599984 C716.604842,443.53332 717.271366,442.999987 717.898682,442.999987 C718.525998,442.999987 719.192522,443.53332 719.898253,444.599984 C719.009555,444.86665 718.343031,444.999983 717.898682,444.999983 C717.454333,444.999983 716.78781,444.86665 715.899111,444.599984 Z M721.897824,446.37498 C721.897824,446.062481 721.927229,445.999981 722.397716,445.999981 C722.868203,445.999981 722.897609,446.249597 722.897609,446.49998 C722.897609,446.750363 722.730978,446.999979 722.397716,446.999979 C722.064454,446.999979 721.897824,446.687479 721.897824,446.37498 Z M718.898467,449.374974 C718.898467,449.062474 718.927873,448.999975 719.39836,448.999975 C719.868847,448.999975 719.898253,449.249591 719.898253,449.499974 C719.898253,449.750356 719.731622,449.999972 719.39836,449.999972 C719.065098,449.999972 718.898467,449.687473 718.898467,449.374974 Z M722.897609,438.599997 C723.270078,437.533332 723.769971,437 724.397287,437 C725.024603,437 725.524496,437.533332 725.896965,438.599997 C725.341529,438.866663 724.841636,438.999996 724.397287,438.999996 C723.952938,438.999996 723.453045,438.866663 722.897609,438.599997 Z M731.895677,456.999958 C733.130706,455.666627 734.297122,454.999962 735.394926,454.999962 C736.492729,454.999962 737.659145,455.666627 738.894174,456.999958 L731.895677,456.999958 Z M743.893101,461.999947 C744.598832,460.666617 745.265355,459.999951 745.892672,459.999951 C746.519988,459.999951 747.186512,460.666617 747.892242,461.999947 L743.893101,461.999947 Z M735.894818,461.599948 C736.424116,460.533284 736.924009,459.999951 737.394496,459.999951 C737.864984,459.999951 738.364876,460.533284 738.894174,461.599948 C738.227651,461.866614 737.727758,461.999947 737.394496,461.999947 C737.061235,461.999947 736.561342,461.866614 735.894818,461.599948 Z M729.896106,464.599942 C730.601837,463.533277 731.268361,462.999945 731.895677,462.999945 C732.522993,462.999945 733.189517,463.533277 733.895248,464.599942 C733.00655,464.866608 732.340026,464.999941 731.895677,464.999941 C731.451328,464.999941 730.784804,464.866608 729.896106,464.599942 Z M740.893745,462.374946 C740.893745,462.062447 740.92315,461.999947 741.393638,461.999947 C741.864125,461.999947 741.89353,462.249563 741.89353,462.499946 C741.89353,462.750329 741.726899,462.999945 741.393638,462.999945 C741.060376,462.999945 740.893745,462.687446 740.893745,462.374946 Z M737.894389,465.37494 C737.894389,465.062441 737.923794,464.999941 738.394282,464.999941 C738.864769,464.999941 738.894174,465.249557 738.894174,465.49994 C738.894174,465.750322 738.727543,465.999939 738.394282,465.999939 C738.06102,465.999939 737.894389,465.687439 737.894389,465.37494 Z M740.893745,456.599959 C741.266214,455.533294 741.766107,454.999962 742.393423,454.999962 C743.020739,454.999962 743.520632,455.533294 743.893101,456.599959 C743.337665,456.866625 742.837772,456.999958 742.393423,456.999958 C741.949074,456.999958 741.449181,456.866625 740.893745,456.599959 Z M559.932598,602.999649 C561.873358,600.999653 563.706297,599.999655 565.431417,599.999655 C567.156537,599.999655 568.989477,600.999653 570.930237,602.999649 L559.932598,602.999649 Z M577.928734,610.999632 C579.163763,608.999636 580.330179,607.999638 581.427983,607.999638 C582.525786,607.999638 583.692202,608.999636 584.927231,610.999632 L577.928734,610.999632 Z M565.93131,610.399633 C566.813473,608.799636 567.646628,607.999638 568.430773,607.999638 C569.214919,607.999638 570.048073,608.799636 570.930237,610.399633 C569.819364,610.799632 568.98621,610.999632 568.430773,610.999632 C567.875337,610.999632 567.042183,610.799632 565.93131,610.399633 Z M556.933242,615.199623 C557.991838,613.066294 558.991623,611.99963 559.932598,611.99963 C560.873572,611.99963 561.873358,613.066294 562.931954,615.199623 C561.598907,615.732955 560.599121,615.999621 559.932598,615.999621 C559.266074,615.999621 558.266289,615.732955 556.933242,615.199623 Z M573.929593,612.374629 C573.929593,612.062129 573.958998,611.99963 574.429485,611.99963 C574.899973,611.99963 574.929378,612.249246 574.929378,612.499628 C574.929378,612.750011 574.762747,612.999627 574.429485,612.999627 C574.096224,612.999627 573.929593,612.687128 573.929593,612.374629 Z M569.930451,617.374618 C569.930451,617.062119 569.959857,616.999619 570.430344,616.999619 C570.900831,616.999619 570.930237,617.249235 570.930237,617.499618 C570.930237,617.750001 570.763606,617.999617 570.430344,617.999617 C570.097082,617.999617 569.930451,617.687117 569.930451,617.374618 Z M574.929378,602.39965 C575.426003,600.799653 576.092527,599.999655 576.928949,599.999655 C577.76537,599.999655 578.431894,600.799653 578.928519,602.39965 C578.187938,602.799649 577.521414,602.999649 576.928949,602.999649 C576.336483,602.999649 575.66996,602.799649 574.929378,602.39965 Z M579.928305,801.999227 C582.927661,798.665901 585.760386,796.999238 588.42648,796.999238 C591.092574,796.999238 593.9253,798.665901 596.924656,801.999227 L579.928305,801.999227 Z M607.922294,811.999206 C610.039487,808.66588 612.039058,806.999217 613.921006,806.999217 C615.802955,806.999217 617.802526,808.66588 619.919718,811.999206 L607.922294,811.999206 Z M589.926158,810.999208 C591.33762,808.332547 592.670667,806.999217 593.9253,806.999217 C595.179932,806.999217 596.512979,808.332547 597.924441,810.999208 C596.147045,811.665873 594.813998,811.999206 593.9253,811.999206 C593.036601,811.999206 591.703554,811.665873 589.926158,810.999208 Z M575.929163,817.799194 C577.69349,814.599201 579.359799,812.999204 580.92809,812.999204 C582.496381,812.999204 584.16269,814.599201 585.927017,817.799194 C583.705272,818.599192 582.038963,818.999191 580.92809,818.999191 C579.817217,818.999191 578.150909,818.599192 575.929163,817.799194 Z M601.923582,813.749202 C601.923582,813.124204 601.982393,812.999204 602.923368,812.999204 C603.864342,812.999204 603.923153,813.498436 603.923153,813.999202 C603.923153,814.499967 603.589891,814.9992 602.923368,814.9992 C602.256844,814.9992 601.923582,814.374201 601.923582,813.749202 Z M594.925085,820.749188 C594.925085,820.124189 594.983896,819.999189 595.92487,819.999189 C596.865845,819.999189 596.924656,820.498421 596.924656,820.999187 C596.924656,821.499953 596.591394,821.999185 595.92487,821.999185 C595.258347,821.999185 594.925085,821.374186 594.925085,820.749188 Z M603.923153,800.999229 C604.668091,798.332568 605.667876,796.999238 606.922509,796.999238 C608.177142,796.999238 609.176927,798.332568 609.921865,800.999229 C608.810992,801.665895 607.811207,801.999227 606.922509,801.999227 C606.033811,801.999227 605.034026,801.665895 603.923153,800.999229 Z M598.924226,834.999157 C601.570717,831.665831 604.07018,829.999168 606.422616,829.999168 C608.775052,829.999168 611.274516,831.665831 613.921006,834.999157 L598.924226,834.999157 Z M623.91886,843.999138 C625.85962,840.665812 627.692559,838.999149 629.417679,838.999149 C631.142799,838.999149 632.975739,840.665812 634.916499,843.999138 L623.91886,843.999138 Z M607.922294,842.99914 C609.157323,840.332479 610.32374,838.999149 611.421543,838.999149 C612.519347,838.999149 613.685763,840.332479 614.920792,842.99914 C613.36557,843.665806 612.199154,843.999138 611.421543,843.999138 C610.643932,843.999138 609.477516,843.665806 607.922294,842.99914 Z M594.925085,848.799128 C596.512979,845.599135 598.012657,843.999138 599.424119,843.999138 C600.835581,843.999138 602.335259,845.599135 603.923153,848.799128 C601.923582,849.599127 600.423904,849.999126 599.424119,849.999126 C598.424334,849.999126 596.924656,849.599127 594.925085,848.799128 Z M618.919933,845.749135 C618.919933,845.124136 618.978744,844.999136 619.919718,844.999136 C620.860693,844.999136 620.919504,845.498369 620.919504,845.999134 C620.919504,846.4999 620.586242,846.999132 619.919718,846.999132 C619.253195,846.999132 618.919933,846.374133 618.919933,845.749135 Z M611.921436,851.749122 C611.921436,851.124123 611.980247,850.999124 612.921221,850.999124 C613.862196,850.999124 613.921006,851.498356 613.921006,851.999121 C613.921006,852.499887 613.587745,852.999119 612.921221,852.999119 C612.254698,852.999119 611.921436,852.374121 611.921436,851.749122 Z M620.919504,833.99916 C621.540286,831.332499 622.37344,829.999168 623.418967,829.999168 C624.464494,829.999168 625.297649,831.332499 625.918431,833.99916 C624.992703,834.665825 624.159549,834.999157 623.418967,834.999157 C622.678385,834.999157 621.845231,834.665825 620.919504,833.99916 Z M631.917143,807.999215 C633.857902,805.332554 635.690842,803.999223 637.415962,803.999223 C639.141082,803.999223 640.974022,805.332554 642.914781,807.999215 L631.917143,807.999215 Z M649.913279,814.9992 C651.32474,812.332539 652.657788,810.999208 653.91242,810.999208 C655.167053,810.999208 656.5001,812.332539 657.911562,814.9992 L649.913279,814.9992 Z M638.91564,814.199201 C639.797804,812.065873 640.630958,810.999208 641.415103,810.999208 C642.199249,810.999208 643.032403,812.065873 643.914567,814.199201 C642.803694,814.732534 641.97054,814.9992 641.415103,814.9992 C640.859667,814.9992 640.026513,814.732534 638.91564,814.199201 Z M629.917572,819.199191 C630.976168,817.065862 631.975953,815.999198 632.916928,815.999198 C633.857902,815.999198 634.857688,817.065862 635.916284,819.199191 C634.583237,819.732523 633.583452,819.999189 632.916928,819.999189 C632.250404,819.999189 631.250619,819.732523 629.917572,819.199191 Z M646.913923,816.374197 C646.913923,816.061698 646.943328,815.999198 647.413815,815.999198 C647.884303,815.999198 647.913708,816.248814 647.913708,816.499197 C647.913708,816.749579 647.747077,816.999196 647.413815,816.999196 C647.080554,816.999196 646.913923,816.686696 646.913923,816.374197 Z M641.914996,821.374186 C641.914996,821.061687 641.944401,820.999187 642.414889,820.999187 C642.885376,820.999187 642.914781,821.248803 642.914781,821.499186 C642.914781,821.749569 642.74815,821.999185 642.414889,821.999185 C642.081627,821.999185 641.914996,821.686686 641.914996,821.374186 Z M647.913708,807.199216 C648.410333,805.065887 649.076857,803.999223 649.913279,803.999223 C650.749701,803.999223 651.416224,805.065887 651.912849,807.199216 C651.172268,807.732548 650.505744,807.999215 649.913279,807.999215 C649.320813,807.999215 648.65429,807.732548 647.913708,807.199216 Z M541.936462,629.999591 C543.700789,627.999596 545.367098,626.999598 546.935388,626.999598 C548.503679,626.999598 550.169988,627.999596 551.934315,629.999591 L541.936462,629.999591 Z M557.933027,635.999579 C559.168056,633.999583 560.334472,632.999585 561.432276,632.999585 C562.530079,632.999585 563.696496,633.999583 564.931525,635.999579 L557.933027,635.999579 Z M547.935174,635.39958 C548.640905,633.799583 549.307428,632.999585 549.934744,632.999585 C550.562061,632.999585 551.228584,633.799583 551.934315,635.39958 C551.045617,635.799579 550.379093,635.999579 549.934744,635.999579 C549.490395,635.999579 548.823872,635.799579 547.935174,635.39958 Z M539.936891,639.399572 C540.819055,637.799575 541.652209,636.999577 542.436354,636.999577 C543.2205,636.999577 544.053654,637.799575 544.935818,639.399572 C543.824945,639.799571 542.991791,639.99957 542.436354,639.99957 C541.880918,639.99957 541.047764,639.799571 539.936891,639.399572 Z M554.933671,637.374576 C554.933671,637.062076 554.963077,636.999577 555.433564,636.999577 C555.904051,636.999577 555.933456,637.249193 555.933456,637.499576 C555.933456,637.749958 555.766826,637.999574 555.433564,637.999574 C555.100302,637.999574 554.933671,637.687075 554.933671,637.374576 Z M550.93453,641.374567 C550.93453,641.062068 550.963935,640.999568 551.434422,640.999568 C551.90491,640.999568 551.934315,641.249184 551.934315,641.499567 C551.934315,641.74995 551.767684,641.999566 551.434422,641.999566 C551.101161,641.999566 550.93453,641.687067 550.93453,641.374567 Z M555.933456,629.399593 C556.430082,627.799596 557.096605,626.999598 557.933027,626.999598 C558.769449,626.999598 559.435972,627.799596 559.932598,629.399593 C559.192016,629.799592 558.525493,629.999591 557.933027,629.999591 C557.340562,629.999591 556.674038,629.799592 555.933456,629.399593 Z M581.927875,625.199602 C583.162904,623.066273 584.329321,621.999608 585.427124,621.999608 C586.524928,621.999608 587.691344,623.066273 588.926373,625.199602 C587.371151,625.732934 586.204735,625.9996 585.427124,625.9996 C584.649513,625.9996 583.483097,625.732934 581.927875,625.199602 Z M569.930451,629.999591 C571.341913,627.33293 572.67496,625.9996 573.929593,625.9996 C575.184225,625.9996 576.517272,627.33293 577.928734,629.999591 C576.151338,630.666257 574.818291,630.999589 573.929593,630.999589 C573.040895,630.999589 571.707847,630.666257 569.930451,629.999591 Z M591.925729,626.749598 C591.925729,626.1246 591.98454,625.9996 592.925514,625.9996 C593.866489,625.9996 593.9253,626.498832 593.9253,626.999598 C593.9253,627.500363 593.592038,627.999596 592.925514,627.999596 C592.258991,627.999596 591.925729,627.374597 591.925729,626.749598 Z M585.927017,632.749586 C585.927017,632.124587 585.985828,631.999587 586.926802,631.999587 C587.867777,631.999587 587.926587,632.498819 587.926587,632.999585 C587.926587,633.500351 587.593326,633.999583 586.926802,633.999583 C586.260279,633.999583 585.927017,633.374584 585.927017,632.749586 Z M593.9253,616.199621 C594.546081,614.066292 595.379236,612.999627 596.424763,612.999627 C597.47029,612.999627 598.303445,614.066292 598.924226,616.199621 C597.998499,616.732953 597.165345,616.999619 596.424763,616.999619 C595.684181,616.999619 594.851027,616.732953 593.9253,616.199621 Z M1230.78856,646.199557 C1232.02359,644.066228 1233.19001,642.999564 1234.28781,642.999564 C1235.38562,642.999564 1236.55203,644.066228 1237.78706,646.199557 C1236.23184,646.732889 1235.06542,646.999555 1234.28781,646.999555 C1233.5102,646.999555 1232.34379,646.732889 1230.78856,646.199557 Z M1218.79114,650.999547 C1220.2026,648.332886 1221.53565,646.999555 1222.79028,646.999555 C1224.04491,646.999555 1225.37796,648.332886 1226.78942,650.999547 C1225.01203,651.666212 1223.67898,651.999545 1222.79028,651.999545 C1221.90158,651.999545 1220.56854,651.666212 1218.79114,650.999547 Z M1240.78642,647.749554 C1240.78642,647.124555 1240.84523,646.999555 1241.7862,646.999555 C1242.72718,646.999555 1242.78599,647.498788 1242.78599,647.999553 C1242.78599,648.500319 1242.45273,648.999551 1241.7862,648.999551 C1241.11968,648.999551 1240.78642,648.374553 1240.78642,647.749554 Z M1234.7877,653.749541 C1234.7877,653.124542 1234.84652,652.999543 1235.78749,652.999543 C1236.72846,652.999543 1236.78728,653.498775 1236.78728,653.999541 C1236.78728,654.500306 1236.45401,654.999538 1235.78749,654.999538 C1235.12097,654.999538 1234.7877,654.37454 1234.7877,653.749541 Z M1242.78599,637.199576 C1243.40677,635.066247 1244.23992,633.999583 1245.28545,633.999583 C1246.33098,633.999583 1247.16413,635.066247 1247.78491,637.199576 C1246.85919,637.732908 1246.02603,637.999574 1245.28545,637.999574 C1244.54487,637.999574 1243.71171,637.732908 1242.78599,637.199576 Z M1271.84557,653.121514 C1269.38054,653.118612 1267.87357,652.641798 1267.32467,651.691073 C1266.77577,650.740347 1267.11632,649.196868 1268.34632,647.060638 C1269.58581,648.140833 1270.39996,649.017646 1270.78877,649.691077 C1271.17757,650.364507 1271.52984,651.507987 1271.84557,653.121514 Z M1282.0012,661.111593 C1278.98607,661.222562 1277.16485,660.734775 1276.53753,659.648231 C1275.91022,658.561687 1276.39839,656.740569 1278.00206,654.184877 C1279.4681,655.390815 1280.4233,656.378601 1280.86765,657.148236 C1281.312,657.917871 1281.68985,659.23899 1282.0012,661.111593 Z M1268.18898,643.688121 C1267.64772,644.00062 1267.51006,644.012188 1267.03957,643.19728 C1266.56908,642.382373 1266.97203,642.081825 1267.4057,641.831442 C1267.83938,641.581059 1268.43836,641.620056 1268.77162,642.197283 C1269.10488,642.774509 1268.73025,643.375621 1268.18898,643.688121 Z M1276.38448,645.883164 C1275.84321,646.195663 1275.70556,646.207232 1275.23507,645.392324 C1274.76458,644.577416 1275.16752,644.276868 1275.6012,644.026485 C1276.03487,643.776103 1276.63385,643.8151 1276.96712,644.392326 C1277.30038,644.969552 1276.92574,645.570665 1276.38448,645.883164 Z M1258.05265,647.231431 C1255.89474,647.760482 1254.5544,647.572281 1254.03164,646.666828 C1253.50888,645.761375 1254.01606,644.50651 1255.55318,642.902233 C1256.47793,643.43727 1257.12544,644.02547 1257.49573,644.666833 C1257.86603,645.308195 1258.05166,646.163061 1258.05265,647.231431 Z M840.872279,713.999414 C843.342337,711.332753 845.67517,709.999422 847.870777,709.999422 C850.066384,709.999422 852.399216,711.332753 854.869274,713.999414 L840.872279,713.999414 Z M863.867342,722.999395 C865.631669,720.332734 867.297978,718.999403 868.866269,718.999403 C870.43456,718.999403 872.100869,720.332734 873.865196,722.999395 L863.867342,722.999395 Z M848.870562,722.199396 C850.105591,720.066067 851.272007,718.999403 852.369811,718.999403 C853.467614,718.999403 854.634031,720.066067 855.86906,722.199396 C854.313838,722.732728 853.147422,722.999395 852.369811,722.999395 C851.5922,722.999395 850.425784,722.732728 848.870562,722.199396 Z M836.873138,726.999386 C838.2846,724.332725 839.617647,722.999395 840.872279,722.999395 C842.126912,722.999395 843.459959,724.332725 844.871421,726.999386 C843.094025,727.666051 841.760977,727.999384 840.872279,727.999384 C839.983581,727.999384 838.650534,727.666051 836.873138,726.999386 Z M858.868416,723.749393 C858.868416,723.124394 858.927226,722.999395 859.868201,722.999395 C860.809175,722.999395 860.867986,723.498627 860.867986,723.999392 C860.867986,724.500158 860.534724,724.99939 859.868201,724.99939 C859.201677,724.99939 858.868416,724.374392 858.868416,723.749393 Z M852.869704,729.74938 C852.869704,729.124382 852.928514,728.999382 853.869489,728.999382 C854.810463,728.999382 854.869274,729.498614 854.869274,729.99938 C854.869274,730.500145 854.536012,730.999378 853.869489,730.999378 C853.202965,730.999378 852.869704,730.374379 852.869704,729.74938 Z M860.867986,713.199415 C861.488768,711.066086 862.321922,709.999422 863.36745,709.999422 C864.412977,709.999422 865.246131,711.066086 865.866913,713.199415 C864.941186,713.732747 864.108031,713.999414 863.36745,713.999414 C862.626868,713.999414 861.793713,713.732747 860.867986,713.199415 Z M884.862835,542.999776 C887.332892,540.333115 889.665725,538.999784 891.861332,538.999784 C894.056939,538.999784 896.389771,540.333115 898.859829,542.999776 L884.862835,542.999776 Z M907.857897,551.999757 C909.622224,549.333096 911.288533,547.999765 912.856824,547.999765 C914.425115,547.999765 916.091424,549.333096 917.855751,551.999757 L907.857897,551.999757 Z M892.861117,551.199758 C894.096146,549.066429 895.262562,547.999765 896.360366,547.999765 C897.458169,547.999765 898.624586,549.066429 899.859615,551.199758 C898.304393,551.73309 897.137977,551.999757 896.360366,551.999757 C895.582755,551.999757 894.416339,551.73309 892.861117,551.199758 Z M880.863693,555.999748 C882.275155,553.333087 883.608202,551.999757 884.862835,551.999757 C886.117467,551.999757 887.450514,553.333087 888.861976,555.999748 C887.08458,556.666413 885.751533,556.999746 884.862835,556.999746 C883.974136,556.999746 882.641089,556.666413 880.863693,555.999748 Z M902.858971,552.749755 C902.858971,552.124756 902.917782,551.999757 903.858756,551.999757 C904.79973,551.999757 904.858541,552.498989 904.858541,552.999754 C904.858541,553.50052 904.52528,553.999752 903.858756,553.999752 C903.192232,553.999752 902.858971,553.374754 902.858971,552.749755 Z M896.860259,558.749742 C896.860259,558.124744 896.91907,557.999744 897.860044,557.999744 C898.801018,557.999744 898.859829,558.498976 898.859829,558.999742 C898.859829,559.500507 898.526568,559.99974 897.860044,559.99974 C897.19352,559.99974 896.860259,559.374741 896.860259,558.749742 Z M904.858541,542.199777 C905.479323,540.066448 906.312478,538.999784 907.358005,538.999784 C908.403532,538.999784 909.236686,540.066448 909.857468,542.199777 C908.931741,542.733109 908.098586,542.999776 907.358005,542.999776 C906.617423,542.999776 905.784269,542.733109 904.858541,542.199777 Z M1184.55784,598.765139 C1182.25335,603.952022 1181.52779,607.888769 1182.34382,610.551246 C1182.39094,610.70496 1182.35768,610.863616 1182.26801,610.982515 C1182.31728,611.533989 1182.32272,612.056607 1182.28422,612.550512 C1182.26342,612.817401 1182.02952,613.01831 1181.76179,612.999255 C1181.49406,612.980199 1181.29388,612.748395 1181.31469,612.481506 C1181.5284,609.739481 1180.21705,605.878366 1177.35974,600.929346 C1177.30067,600.827038 1177.24108,600.72519 1177.18096,600.623802 C1176.5896,601.618673 1176.05472,602.653421 1175.57624,603.728106 C1173.25874,608.933283 1172.52778,612.882428 1173.34575,615.551235 C1173.39287,615.704949 1173.35961,615.863605 1173.26994,615.982505 C1173.31921,616.533979 1173.32465,617.056597 1173.28616,617.550501 C1173.26536,617.81739 1173.03145,618.018299 1172.76372,617.999244 C1172.49599,617.980189 1172.29582,617.748385 1172.31662,617.481496 C1172.53033,614.739471 1171.21899,610.878356 1168.36167,605.929336 C1165.50599,600.983152 1161.42648,597.112118 1156.11435,594.310385 C1155.87763,594.185533 1155.78851,593.892475 1155.9153,593.655821 C1156.04209,593.419168 1156.33677,593.328535 1156.57349,593.453387 C1162.04433,596.338825 1166.25789,600.337056 1169.20536,605.44223 C1170.49009,607.667455 1171.47458,609.687903 1172.15708,611.50616 C1172.441,609.198853 1173.28653,606.475687 1174.68625,603.331859 C1175.25016,602.06529 1175.89012,600.852296 1176.60603,599.692962 C1173.80257,595.333655 1169.97361,591.874294 1165.11242,589.310396 C1164.8757,589.185544 1164.78658,588.892486 1164.91337,588.655832 C1165.04016,588.419178 1165.33484,588.328545 1165.57156,588.453397 C1170.43955,591.020881 1174.31208,594.469425 1177.18295,598.794908 C1177.99838,597.574041 1178.90223,596.415698 1179.89437,595.31999 C1179.31576,594.969292 1178.72086,594.63276 1178.10963,594.310385 C1177.87291,594.185533 1177.78379,593.892475 1177.91058,593.655821 C1178.03737,593.419168 1178.33205,593.328535 1178.56877,593.453387 C1179.2567,593.816213 1179.92474,594.196634 1180.57289,594.594638 C1182.16931,592.94233 1183.9771,591.440082 1185.99574,590.088303 C1186.21811,589.93939 1186.52066,589.998724 1186.67149,590.220828 C1186.82232,590.442932 1186.76432,590.743701 1186.54195,590.892613 C1184.63747,592.167946 1182.92782,593.579407 1181.41255,595.127372 C1182.39684,595.772501 1183.33265,596.46044 1184.21992,597.191144 C1186.62868,592.319716 1190.22215,588.283641 1194.99381,585.088313 C1195.21618,584.939401 1195.51873,584.998735 1195.66956,585.220839 C1195.82039,585.442943 1195.76239,585.743711 1195.54002,585.892623 C1190.835,589.043325 1187.31912,593.024865 1184.98556,597.84289 C1187.46125,600.021153 1189.53347,602.554619 1191.20064,605.44223 C1192.48537,607.667455 1193.46986,609.687903 1194.15236,611.50616 C1194.43627,609.198853 1195.28181,606.475687 1196.68153,603.331859 C1199.07922,597.946557 1202.85176,593.529793 1207.99102,590.088303 C1208.21339,589.93939 1208.51594,589.998724 1208.66677,590.220828 C1208.8176,590.442932 1208.7596,590.743701 1208.53723,590.892613 C1203.54706,594.234266 1199.89453,598.510518 1197.57151,603.728106 C1195.25402,608.933283 1194.52306,612.882428 1195.34103,615.551235 C1195.38815,615.704949 1195.35489,615.863605 1195.26522,615.982505 C1195.31449,616.533979 1195.31993,617.056597 1195.28143,617.550501 C1195.26063,617.81739 1195.02673,618.018299 1194.759,617.999244 C1194.49127,617.980189 1194.29109,617.748385 1194.3119,617.481496 C1194.52561,614.739471 1193.21426,610.878356 1190.35695,605.929336 C1188.79195,603.218685 1186.8594,600.83094 1184.55784,598.765139 Z M1183.78925,598.098731 C1182.83023,597.295475 1181.81139,596.544373 1180.73262,595.845364 C1179.62944,597.049815 1178.63781,598.332666 1177.75754,599.694079 C1177.90926,599.940767 1178.05788,600.190154 1178.20343,600.442241 C1179.48816,602.667465 1180.47265,604.687913 1181.15515,606.506171 C1181.43906,604.198864 1182.2846,601.475698 1183.68432,598.33187 C1183.71901,598.253954 1183.75399,598.176241 1183.78925,598.098731 Z M966.530886,641.860466 C970.139655,644.435613 973.046247,647.630314 975.247002,651.442133 C976.531736,653.667357 977.516222,655.687805 978.198724,657.506063 C978.29639,656.712351 978.460516,655.869428 978.690799,654.977098 C978.482936,654.910319 978.340557,654.708577 978.358261,654.481417 C978.571972,651.739392 977.260629,647.878277 974.403311,642.929257 C973.124701,640.714641 971.600748,638.715563 969.83066,636.931499 C968.564853,638.457594 967.465047,640.100484 966.530886,641.860466 Z M965.724151,641.30294 C966.690455,639.498853 967.826255,637.814367 969.1312,636.249776 C967.106622,634.341525 964.781908,632.695271 962.155994,631.310307 C961.919273,631.185455 961.830155,630.892397 961.956944,630.655743 C962.083733,630.41909 962.378416,630.328456 962.615137,630.453308 C965.303079,631.870987 967.687516,633.557291 969.767406,635.511527 C971.563411,633.49399 973.65482,631.685996 976.040819,630.088218 C976.263193,629.939306 976.565735,629.998639 976.716567,630.220744 C976.867398,630.442848 976.809401,630.743616 976.587027,630.892528 C974.2551,632.454097 972.215278,634.219758 970.466731,636.190198 C972.319052,638.04699 973.912747,640.131155 975.247002,642.442152 C976.531736,644.667376 977.516222,646.687824 978.198724,648.506082 C978.482639,646.198775 979.328171,643.475609 980.727894,640.331781 C983.125584,634.946479 986.898127,630.529714 992.037384,627.088224 C992.259758,626.939312 992.562301,626.998646 992.713132,627.22075 C992.863964,627.442854 992.805967,627.743622 992.583593,627.892534 C987.593424,631.234188 983.940899,635.51044 981.617879,640.728028 C979.300385,645.933205 978.569423,649.882349 979.387398,652.551157 C979.396333,652.580307 979.402377,652.609634 979.405694,652.638835 C979.770794,651.593537 980.211652,650.49126 980.727894,649.331762 C983.125584,643.94646 986.898127,639.529695 992.037384,636.088205 C992.259758,635.939293 992.562301,635.998627 992.713132,636.220731 C992.863964,636.442835 992.805967,636.743603 992.583593,636.892515 C987.593424,640.234169 983.940899,644.510421 981.617879,649.728009 C979.300385,654.933186 978.569423,658.88233 979.387398,661.551138 C979.434511,661.704852 979.401253,661.863508 979.311585,661.982407 C979.360858,662.533881 979.366295,663.056499 979.3278,663.550404 C979.306999,663.817293 979.073098,664.018202 978.805367,663.999147 C978.537636,663.980091 978.33746,663.748287 978.358261,663.481398 C978.571972,660.739373 977.260629,656.878258 974.403311,651.929238 C972.2971,648.281173 969.525149,645.217971 966.08393,642.737284 C965.924272,643.063671 965.770067,643.393917 965.621314,643.728022 C963.30382,648.933198 962.572857,652.882343 963.390833,655.55115 C963.437945,655.704865 963.404687,655.863521 963.31502,655.98242 C963.364292,656.533894 963.369729,657.056512 963.331235,657.550416 C963.310434,657.817306 963.076532,658.018215 962.808801,657.999159 C962.541071,657.980104 962.340895,657.7483 962.361696,657.481411 C962.575407,654.739386 961.264063,650.878271 958.406745,645.929251 C955.551065,640.983067 951.471558,637.112034 946.159429,634.310301 C945.922707,634.185449 945.833589,633.89239 945.960378,633.655737 C946.087167,633.419083 946.38185,633.32845 946.618572,633.453302 C952.089409,636.338741 956.302963,640.336972 959.250437,645.442146 C960.535171,647.66737 961.519656,649.687818 962.202159,651.506076 C962.486073,649.198769 963.331606,646.475603 964.731328,643.331775 C964.905491,642.940598 965.086909,642.554531 965.275577,642.173577 C964.287745,641.507267 963.24791,640.886188 962.155994,640.310288 C961.919273,640.185436 961.830155,639.892378 961.956944,639.655724 C962.083733,639.41907 962.378416,639.328437 962.615137,639.453289 C963.701032,640.026014 964.737393,640.642579 965.724151,641.30294 Z M481.708742,718.764885 C479.404254,723.951768 478.678691,727.888515 479.494727,730.550992 C479.541839,730.704706 479.508581,730.863362 479.418914,730.982261 C479.468186,731.533735 479.473623,732.056353 479.435128,732.550258 C479.414327,732.817147 479.180426,733.018056 478.912695,732.999 C478.644964,732.979945 478.444788,732.748141 478.465589,732.481252 C478.679301,729.739227 477.367957,725.878112 474.510639,720.929092 C474.451571,720.826784 474.39198,720.724936 474.331865,720.623547 C473.740505,721.618419 473.20562,722.653167 472.727139,723.727852 C470.409645,728.933029 469.678683,732.882173 470.496658,735.550981 C470.543771,735.704695 470.510513,735.863351 470.420846,735.982251 C470.470118,736.533725 470.475555,737.056343 470.43706,737.550247 C470.416259,737.817136 470.182358,738.018045 469.914627,737.99899 C469.646896,737.979935 469.44672,737.748131 469.467521,737.481241 C469.681232,734.739217 468.369889,730.878102 465.512571,725.929082 C462.65689,720.982898 458.577384,717.111864 453.265254,714.310131 C453.028533,714.185279 452.939415,713.892221 453.066204,713.655567 C453.192993,713.418914 453.487676,713.328281 453.724398,713.453133 C459.195235,716.338571 463.408789,720.336802 466.356262,725.441976 C467.640996,727.667201 468.625482,729.687648 469.307984,731.505906 C469.591899,729.198599 470.437431,726.475433 471.837154,723.331605 C472.401066,722.065036 473.041028,720.852041 473.756933,719.692708 C470.953469,715.333401 467.124513,711.87404 462.263322,709.310142 C462.026601,709.18529 461.937483,708.892232 462.064272,708.655578 C462.191061,708.418924 462.485744,708.328291 462.722466,708.453143 C467.590455,711.020627 471.462982,714.469171 474.333849,718.794654 C475.149285,717.573787 476.053137,716.415444 477.045271,715.319736 C476.466668,714.969038 475.87176,714.632506 475.260532,714.310131 C475.02381,714.185279 474.934693,713.892221 475.061481,713.655567 C475.18827,713.418914 475.482954,713.328281 475.719675,713.453133 C476.407599,713.815959 477.075643,714.19638 477.72379,714.594384 C479.320218,712.942076 481.128001,711.439828 483.146644,710.088048 C483.369018,709.939136 483.671561,709.99847 483.822392,710.220574 C483.973224,710.442678 483.915227,710.743447 483.692853,710.892359 C481.788369,712.167692 480.078719,713.579153 478.56345,715.127118 C479.547739,715.772247 480.483553,716.460186 481.370825,717.19089 C483.779587,712.319462 487.373055,708.283387 492.144712,705.088059 C492.367086,704.939147 492.669629,704.998481 492.820461,705.220585 C492.971292,705.442689 492.913295,705.743457 492.690921,705.892369 C487.985906,709.043071 484.470028,713.024611 482.136466,717.842636 C484.612155,720.020898 486.684376,722.554365 488.35154,725.441976 C489.636274,727.667201 490.62076,729.687648 491.303262,731.505906 C491.587176,729.198599 492.432709,726.475433 493.832431,723.331605 C496.230122,717.946303 500.002665,713.529538 505.141922,710.088048 C505.364296,709.939136 505.666839,709.99847 505.81767,710.220574 C505.968501,710.442678 505.910505,710.743447 505.68813,710.892359 C500.697962,714.234012 497.045437,718.510264 494.722417,723.727852 C492.404923,728.933029 491.67396,732.882173 492.491936,735.550981 C492.539049,735.704695 492.50579,735.863351 492.416123,735.982251 C492.465396,736.533725 492.470832,737.056343 492.432338,737.550247 C492.411537,737.817136 492.177635,738.018045 491.909905,737.99899 C491.642174,737.979935 491.441998,737.748131 491.462799,737.481241 C491.67651,734.739217 490.365167,730.878102 487.507849,725.929082 C485.942854,723.218431 484.010301,720.830686 481.708742,718.764885 Z M480.940156,718.098477 C479.981135,717.295221 478.962289,716.544119 477.883524,715.84511 C476.780341,717.049561 475.788713,718.332412 474.908444,719.693825 C475.060159,719.940513 475.208788,720.1899 475.35433,720.441987 C476.639064,722.667211 477.62355,724.687659 478.306052,726.505917 C478.589967,724.19861 479.435499,721.475444 480.835222,718.331616 C480.869912,718.2537 480.90489,718.175987 480.940156,718.098477 Z M776.645418,560.765219 C774.340931,565.952103 773.615368,569.888849 774.431403,572.551326 C774.478515,572.70504 774.445257,572.863696 774.35559,572.982596 C774.404863,573.53407 774.410299,574.056688 774.371805,574.550592 C774.351004,574.817481 774.117102,575.01839 773.849371,574.999335 C773.581641,574.98028 773.381465,574.748476 773.402266,574.481587 C773.615977,571.739562 772.304633,567.878447 769.447315,562.929427 C769.388248,562.827118 769.328657,562.72527 769.268542,562.623882 C768.677181,563.618753 768.142296,564.653502 767.663816,565.728187 C765.346322,570.933363 764.615359,574.882508 765.433335,577.551316 C765.480447,577.70503 765.447189,577.863686 765.357522,577.982585 C765.406794,578.534059 765.412231,579.056677 765.373737,579.550581 C765.352935,579.817471 765.119034,580.01838 764.851303,579.999324 C764.583573,579.980269 764.383397,579.748465 764.404198,579.481576 C764.617909,576.739551 763.306565,572.878436 760.449247,567.929416 C757.593567,562.983232 753.51406,559.112199 748.201931,556.310466 C747.965209,556.185614 747.876091,555.892556 748.00288,555.655902 C748.129669,555.419248 748.424352,555.328615 748.661074,555.453467 C754.131911,558.338906 758.345465,562.337137 761.292939,567.442311 C762.577673,569.667535 763.562158,571.687983 764.24466,573.506241 C764.528575,571.198934 765.374108,568.475768 766.77383,565.33194 C767.337743,564.065371 767.977705,562.852376 768.693609,561.693043 C765.890146,557.333735 762.06119,553.874374 757.199999,551.310476 C756.963277,551.185624 756.874159,550.892566 757.000948,550.655913 C757.127737,550.419259 757.422421,550.328626 757.659142,550.453478 C762.527131,553.020961 766.399658,556.469505 769.270525,560.794989 C770.085961,559.574121 770.989813,558.415779 771.981947,557.32007 C771.403345,556.969372 770.808436,556.632841 770.197208,556.310466 C769.960487,556.185614 769.871369,555.892556 769.998158,555.655902 C770.124947,555.419248 770.41963,555.328615 770.656351,555.453467 C771.344275,555.816293 772.012319,556.196714 772.660466,556.594718 C774.256895,554.94241 776.064677,553.440162 778.083321,552.088383 C778.305695,551.939471 778.608237,551.998805 778.759069,552.220909 C778.9099,552.443013 778.851903,552.743781 778.629529,552.892693 C776.725045,554.168026 775.015395,555.579488 773.500126,557.127452 C774.484415,557.772582 775.420229,558.46052 776.307501,559.191224 C778.716264,554.319796 782.309731,550.283722 787.081389,547.088394 C787.303763,546.939481 787.606305,546.998815 787.757137,547.220919 C787.907968,547.443023 787.849971,547.743792 787.627597,547.892704 C782.922582,551.043405 779.406704,555.024945 777.073142,559.842971 C779.548831,562.021233 781.621053,564.554699 783.288216,567.442311 C784.57295,569.667535 785.557436,571.687983 786.239938,573.506241 C786.523853,571.198934 787.369385,568.475768 788.769108,565.33194 C791.166799,559.946638 794.939341,555.529873 800.078598,552.088383 C800.300972,551.939471 800.603515,551.998805 800.754346,552.220909 C800.905178,552.443013 800.847181,552.743781 800.624807,552.892693 C795.634638,556.234347 791.982113,560.510599 789.659093,565.728187 C787.341599,570.933363 786.610637,574.882508 787.428612,577.551316 C787.475725,577.70503 787.442467,577.863686 787.352799,577.982585 C787.402072,578.534059 787.407509,579.056677 787.369014,579.550581 C787.348213,579.817471 787.114312,580.01838 786.846581,579.999324 C786.57885,579.980269 786.378674,579.748465 786.399475,579.481576 C786.613186,576.739551 785.301843,572.878436 782.444525,567.929416 C780.87953,565.218766 778.946977,562.831021 776.645418,560.765219 Z M775.876832,560.098812 C774.917811,559.295555 773.898965,558.544454 772.820201,557.845444 C771.717017,559.049895 770.725389,560.332746 769.84512,561.69416 C769.996835,561.940847 770.145464,562.190235 770.291007,562.442321 C771.575741,564.667546 772.560226,566.687994 773.242729,568.506251 C773.526643,566.198945 774.372176,563.475778 775.771898,560.33195 C775.806588,560.254035 775.841566,560.176322 775.876832,560.098812 Z M805.639193,844.764618 C803.334706,849.951502 802.609143,853.888248 803.425178,856.550725 C803.47229,856.704439 803.439032,856.863095 803.349365,856.981995 C803.398638,857.533468 803.404074,858.056086 803.36558,858.549991 C803.344779,858.81688 803.110877,859.017789 802.843146,858.998734 C802.575416,858.979678 802.37524,858.747875 802.396041,858.480985 C802.609752,855.738961 801.298408,851.877845 798.44109,846.928825 C798.382023,846.826517 798.322432,846.724669 798.262317,846.623281 C797.670956,847.618152 797.136071,848.652901 796.657591,849.727586 C794.340097,854.932762 793.609134,858.881907 794.42711,861.550714 C794.474222,861.704429 794.440964,861.863085 794.351297,861.981984 C794.400569,862.533458 794.406006,863.056076 794.367512,863.54998 C794.34671,863.816869 794.112809,864.017778 793.845078,863.998723 C793.577348,863.979668 793.377172,863.747864 793.397973,863.480975 C793.611684,860.73895 792.30034,856.877835 789.443022,851.928815 C786.587342,846.982631 782.507835,843.111597 777.195706,840.309865 C776.958984,840.185013 776.869866,839.891954 776.996655,839.655301 C777.123444,839.418647 777.418127,839.328014 777.654849,839.452866 C783.125686,842.338305 787.33924,846.336536 790.286713,851.441709 C791.571447,853.666934 792.555933,855.687382 793.238435,857.505639 C793.52235,855.198333 794.367883,852.475166 795.767605,849.331338 C796.331518,848.06477 796.97148,846.851775 797.687384,845.692441 C794.883921,841.333134 791.054965,837.873773 786.193774,835.309875 C785.957052,835.185023 785.867934,834.891965 785.994723,834.655311 C786.121512,834.418658 786.416196,834.328025 786.652917,834.452877 C791.520906,837.02036 795.393433,840.468904 798.2643,844.794387 C799.079736,843.57352 799.983588,842.415177 800.975722,841.319469 C800.39712,840.968771 799.802211,840.632239 799.190983,840.309865 C798.954262,840.185013 798.865144,839.891954 798.991933,839.655301 C799.118722,839.418647 799.413405,839.328014 799.650126,839.452866 C800.33805,839.815692 801.006094,840.196113 801.654241,840.594117 C803.25067,838.941809 805.058452,837.439561 807.077096,836.087782 C807.29947,835.93887 807.602012,835.998203 807.752844,836.220307 C807.903675,836.442412 807.845678,836.74318 807.623304,836.892092 C805.71882,838.167425 804.00917,839.578886 802.493901,841.126851 C803.47819,841.77198 804.414004,842.459919 805.301276,843.190623 C807.710039,838.319195 811.303506,834.283121 816.075164,831.087792 C816.297538,830.93888 816.60008,830.998214 816.750912,831.220318 C816.901743,831.442422 816.843746,831.74319 816.621372,831.892103 C811.916357,835.042804 808.400479,839.024344 806.066917,843.84237 C808.542606,846.020632 810.614828,848.554098 812.281991,851.441709 C813.566725,853.666934 814.551211,855.687382 815.233713,857.505639 C815.517628,855.198333 816.36316,852.475166 817.762883,849.331338 C820.160573,843.946036 823.933116,839.529272 829.072373,836.087782 C829.294747,835.93887 829.59729,835.998203 829.748121,836.220307 C829.898953,836.442412 829.840956,836.74318 829.618582,836.892092 C824.628413,840.233745 820.975888,844.509998 818.652868,849.727586 C816.335374,854.932762 815.604412,858.881907 816.422387,861.550714 C816.4695,861.704429 816.436242,861.863085 816.346574,861.981984 C816.395847,862.533458 816.401284,863.056076 816.362789,863.54998 C816.341988,863.816869 816.108087,864.017778 815.840356,863.998723 C815.572625,863.979668 815.372449,863.747864 815.39325,863.480975 C815.606961,860.73895 814.295618,856.877835 811.4383,851.928815 C809.873305,849.218164 807.940752,846.83042 805.639193,844.764618 Z M804.870607,844.098211 C803.911586,843.294954 802.89274,842.543852 801.813976,841.844843 C800.710792,843.049294 799.719164,844.332145 798.838895,845.693559 C798.99061,845.940246 799.139239,846.189634 799.284782,846.44172 C800.569516,848.666945 801.554001,850.687392 802.236504,852.50565 C802.520418,850.198343 803.365951,847.475177 804.765673,844.331349 C804.800363,844.253433 804.835341,844.175721 804.870607,844.098211 Z M536.41469,486.667503 C535.467038,485.88327 534.459063,485.151357 533.39067,484.471703 C532.302728,485.645577 531.326505,486.897543 530.461805,488.227763 C530.608655,488.466379 530.752482,488.707626 530.893285,488.951503 C532.196324,491.208432 533.178948,493.249291 533.839196,495.07697 C534.075827,492.78591 534.900871,490.064756 536.306221,486.908288 C536.342056,486.827801 536.378213,486.74754 536.41469,486.667503 Z M537.172427,487.317133 C534.931592,492.355921 534.236698,496.184587 535.050897,498.779415 C535.119281,498.997353 535.020523,499.22465 534.826547,499.327456 C534.860791,499.811856 534.859486,500.273145 534.822561,500.711426 C534.80067,500.971265 534.570382,501.168103 534.308199,501.151077 C534.046015,501.13405 533.851219,500.909607 533.87311,500.649769 C534.098019,497.980182 532.835197,494.230206 530.063974,489.430306 C530.007769,489.332956 529.951067,489.236039 529.893869,489.139556 C529.319211,490.103077 528.800055,491.105578 528.336333,492.147115 C526.088669,497.195452 525.390952,501.030599 526.206193,503.628748 C526.274577,503.846686 526.175818,504.073983 525.981843,504.176789 C526.016086,504.661189 526.014781,505.122478 525.977857,505.560759 C525.955966,505.820598 525.725678,506.017436 525.463494,506.00041 C525.201311,505.983384 525.006515,505.75894 525.028406,505.499102 C525.253314,502.829515 523.990493,499.079539 521.219269,494.27964 C518.449634,489.482491 514.474944,485.73855 509.286612,483.042174 C509.055407,482.922017 508.96976,482.637335 509.095315,482.406319 C509.220869,482.175303 509.510079,482.085435 509.741284,482.205592 C515.084624,484.982526 519.189918,488.849488 522.048581,493.800836 C523.351619,496.057765 524.334243,498.098624 524.994492,499.926303 C525.231123,497.635243 526.056167,494.914089 527.461517,491.757621 C528.00906,490.527818 528.631623,489.35058 529.329101,488.225991 C526.607596,484.002216 522.877192,480.659272 518.131316,478.192841 C517.900112,478.072684 517.814465,477.788002 517.940019,477.556986 C518.065573,477.32597 518.354784,477.236102 518.585988,477.356259 C523.337421,479.825578 527.109905,483.156807 529.897401,487.345977 C530.697188,486.155836 531.585156,485.027718 532.561173,483.96173 C532.024209,483.642747 531.472822,483.336231 530.907001,483.042174 C530.675796,482.922017 530.590149,482.637335 530.715704,482.406319 C530.841258,482.175303 531.130468,482.085435 531.361673,482.205592 C532.003063,482.538922 532.626614,482.887958 533.232313,483.25269 C534.780316,481.670399 536.532822,480.232519 538.48936,478.939433 C538.706738,478.795767 539.003758,478.854913 539.152772,479.071539 C539.301786,479.288165 539.246366,479.58024 539.028988,479.723906 C537.186003,480.941943 535.530937,482.290583 534.063359,483.770178 C535.036856,484.396913 535.961588,485.066493 536.837486,485.778873 C539.176272,481.065802 542.677242,477.167816 547.334065,474.0901 C547.551443,473.946434 547.848463,474.00558 547.997477,474.222206 C548.146491,474.438832 548.091071,474.730907 547.873692,474.874573 C543.282698,477.908783 539.857808,481.753438 537.592396,486.413966 C540.01911,488.525679 542.045159,490.988314 543.66897,493.800836 C544.972008,496.057765 545.954632,498.098624 546.614881,499.926303 C546.851512,497.635243 547.676556,494.914089 549.081906,491.757621 C551.407351,486.534585 555.085948,482.259686 560.109749,478.939433 C560.327127,478.795767 560.624147,478.854913 560.773161,479.071539 C560.922175,479.288165 560.866755,479.58024 560.649377,479.723906 C555.771315,482.94784 552.209747,487.086739 549.956722,492.147115 C547.709058,497.195452 547.011341,501.030599 547.826581,503.628748 C547.894966,503.846686 547.796207,504.073983 547.602232,504.176789 C547.636475,504.661189 547.63517,505.122478 547.598246,505.560759 C547.576355,505.820598 547.346067,506.017436 547.083883,506.00041 C546.8217,505.983384 546.626904,505.75894 546.648795,505.499102 C546.873703,502.829515 545.610882,499.079539 542.839658,494.27964 C541.315837,491.640304 539.427237,489.319781 537.172427,487.317133 Z" id="#savanna#" stroke="#CCA278" fill="#CCA278" stroke-linecap="round" stroke-linejoin="round"></path>
    </g>
</svg>
